<?xml version="1.0" encoding="utf-8"?>
<!-- Generator: Adobe Illustrator 27.5.0, SVG Export Plug-In . SVG Version: 6.00 Build 0)  -->
<svg version="1.1" id="Layer_1" xmlns="http://www.w3.org/2000/svg" xmlns:xlink="http://www.w3.org/1999/xlink" x="0px" y="0px"
	 viewBox="-24.062 -92.32 83.736 73.248" style="enable-background:new -24.062 -92.32 83.736 73.248;" xml:space="preserve">
<rect x="-24.062" y="-92.321" style="fill:#FFFFFF;" width="83.736" height="73.25"/>
<g>
	<g>
		<g>
			<g>
				<path style="fill:#63635A;" d="M-1.388-33.791c0.131-0.076,0.282-0.105,0.45-0.105c0.353,0,0.531,0.175,0.531,0.525v0.756
					h-0.116v-0.209l-0.01,0.006c-0.006,0.005-0.009,0.014-0.02,0.026c-0.009,0.005-0.019,0.016-0.026,0.03
					c-0.017,0.012-0.023,0.028-0.046,0.038c-0.014,0.014-0.034,0.026-0.05,0.042c-0.02,0.016-0.044,0.028-0.067,0.039
					c-0.026,0.014-0.054,0.027-0.077,0.037c-0.029,0.001-0.059,0.009-0.091,0.022c-0.034,0.006-0.066,0.006-0.102,0.006
					c-0.156,0-0.277-0.045-0.363-0.12c-0.089-0.083-0.134-0.184-0.134-0.303c0-0.125,0.051-0.219,0.149-0.287
					C-1.257-33.362-1.13-33.4-0.969-33.4h0.437c0-0.189-0.068-0.313-0.227-0.365c-0.044-0.014-0.096-0.023-0.154-0.023
					c-0.057,0-0.108,0-0.157,0.01c-0.049,0.006-0.089,0.014-0.12,0.022c-0.033,0.012-0.057,0.02-0.079,0.031
					c-0.019,0.007-0.036,0.019-0.051,0.026c-0.02,0.013-0.024,0.016-0.031,0.016L-1.388-33.791z M-0.522-33.142
					c0-0.077,0-0.124,0-0.142c-0.029,0-0.063,0-0.096,0c-0.039,0-0.074,0-0.108,0c-0.032,0-0.072,0-0.122,0
					c-0.11,0-0.205,0.005-0.283,0.018c-0.077,0.015-0.141,0.047-0.182,0.094c-0.016,0.022-0.03,0.042-0.04,0.063
					c-0.011,0.035-0.02,0.07-0.021,0.103c-0.006,0.036,0.001,0.072,0.011,0.109c0.012,0.036,0.033,0.066,0.059,0.1
					c0.025,0.022,0.061,0.049,0.115,0.07c0.048,0.019,0.112,0.031,0.182,0.031c0.05,0,0.095-0.003,0.136-0.017
					c0.04-0.01,0.076-0.02,0.105-0.028c0.032-0.015,0.057-0.034,0.083-0.045c0.025-0.018,0.045-0.037,0.057-0.056
					c0.021-0.02,0.031-0.033,0.048-0.056c0.007-0.02,0.017-0.037,0.023-0.055c0.003-0.018,0.015-0.032,0.017-0.047
					c0.006-0.016,0.006-0.025,0.016-0.04C-0.522-33.039-0.522-33.074-0.522-33.142z"/>
				<path style="fill:#63635A;" d="M0.86-33.877h0.442v0.104H0.86v0.604v0.008v0.012c0,0.012,0,0.035,0,0.062
					c-0.002,0.037-0.002,0.056-0.002,0.071c0,0.018,0.002,0.036,0.002,0.063c0,0.025,0.007,0.05,0.01,0.061
					c0.008,0.022,0.017,0.031,0.019,0.057c0.016,0.019,0.023,0.038,0.039,0.05c0.082,0.093,0.209,0.105,0.375,0.045l0.009,0.113
					l-0.023,0.004c-0.007,0.003-0.019,0.003-0.024,0.01c-0.007,0-0.017,0-0.036,0.01c-0.015,0.001-0.03,0.001-0.041,0.001
					c-0.013,0.008-0.033,0.008-0.051,0.008c-0.021,0-0.044,0-0.057,0c-0.018,0-0.038-0.008-0.058-0.009
					c-0.019-0.01-0.037-0.01-0.057-0.02c-0.02-0.011-0.037-0.018-0.059-0.03c-0.02-0.011-0.037-0.03-0.059-0.045
					c-0.032-0.033-0.059-0.087-0.082-0.145c-0.014-0.079-0.026-0.12-0.029-0.154c0-0.035,0-0.089,0-0.15v-0.02v-0.604H0.555v-0.104
					h0.182v-0.413H0.86V-33.877z"/>
				<path style="fill:#63635A;" d="M1.535-33.791c0.136-0.076,0.283-0.105,0.452-0.105c0.353,0,0.53,0.175,0.53,0.525v0.756H2.394
					v-0.209l-0.007,0.006c-0.006,0.005-0.006,0.014-0.02,0.026c-0.008,0.005-0.013,0.016-0.028,0.03
					c-0.009,0.012-0.024,0.028-0.039,0.038c-0.017,0.014-0.035,0.026-0.054,0.042c-0.023,0.016-0.041,0.028-0.067,0.039
					c-0.025,0.014-0.052,0.027-0.078,0.037c-0.025,0.001-0.055,0.009-0.088,0.022c-0.032,0.006-0.071,0.006-0.103,0.006
					c-0.153,0-0.276-0.045-0.362-0.12c-0.088-0.083-0.134-0.184-0.134-0.303c0-0.125,0.046-0.219,0.151-0.287
					C1.666-33.362,1.792-33.4,1.953-33.4H2.39c0-0.189-0.074-0.313-0.226-0.365c-0.041-0.014-0.093-0.023-0.153-0.023
					c-0.057,0-0.112,0-0.158,0.01c-0.046,0.006-0.089,0.014-0.121,0.022c-0.03,0.012-0.055,0.02-0.076,0.031
					c-0.02,0.007-0.036,0.019-0.056,0.026c-0.013,0.013-0.019,0.016-0.022,0.016L1.535-33.791z M2.399-33.142
					c0-0.077,0-0.124,0-0.142c-0.031,0-0.061,0-0.098,0c-0.035,0-0.069,0-0.102,0c-0.035,0-0.076,0-0.127,0
					c-0.11,0-0.202,0.005-0.279,0.018c-0.081,0.015-0.142,0.047-0.184,0.094C1.593-33.15,1.58-33.13,1.567-33.109
					c-0.01,0.035-0.015,0.07-0.017,0.103c-0.004,0.036,0,0.072,0.009,0.109c0.016,0.036,0.035,0.066,0.058,0.1
					c0.028,0.022,0.066,0.049,0.116,0.07c0.053,0.019,0.11,0.031,0.187,0.031c0.051,0,0.092-0.003,0.131-0.017
					c0.04-0.01,0.074-0.02,0.106-0.028c0.032-0.015,0.059-0.034,0.082-0.045c0.024-0.018,0.047-0.037,0.063-0.056
					c0.014-0.02,0.027-0.033,0.039-0.056c0.015-0.02,0.02-0.037,0.028-0.055c0.01-0.018,0.013-0.032,0.013-0.047
					c0.006-0.016,0.009-0.025,0.013-0.04C2.397-33.039,2.399-33.074,2.399-33.142z"/>
				<path style="fill:#63635A;" d="M4.104-32.812L4.104-32.812c-0.005,0.033-0.007,0.08-0.016,0.147
					c-0.007,0.051-0.026,0.105-0.059,0.154c-0.034,0.054-0.078,0.104-0.127,0.148c-0.055,0.045-0.116,0.081-0.192,0.11
					c-0.074,0.035-0.151,0.048-0.232,0.048c-0.165,0-0.322-0.048-0.481-0.126v-0.157c0.103,0.11,0.255,0.17,0.473,0.17
					c0.069,0,0.131-0.013,0.184-0.032c0.055-0.02,0.094-0.037,0.125-0.06c0.038-0.018,0.066-0.053,0.092-0.093
					c0.031-0.037,0.048-0.065,0.058-0.094c0.016-0.028,0.023-0.059,0.033-0.101c0.011-0.036,0.012-0.06,0.012-0.079
					c0.002-0.005,0.002-0.02,0.004-0.042v-0.189c-0.022,0.036-0.049,0.067-0.076,0.098c-0.031,0.034-0.066,0.064-0.105,0.097
					c-0.047,0.026-0.09,0.057-0.152,0.071c-0.059,0.019-0.114,0.028-0.175,0.028c-0.073,0-0.136-0.015-0.213-0.036
					c-0.068-0.03-0.132-0.063-0.199-0.112c-0.061-0.048-0.112-0.109-0.138-0.189c-0.043-0.08-0.055-0.169-0.055-0.27
					c0-0.1,0.017-0.185,0.056-0.27c0.044-0.094,0.111-0.165,0.207-0.228c0.09-0.061,0.193-0.098,0.303-0.098
					c0.067,0,0.128,0.012,0.187,0.024c0.055,0.017,0.093,0.031,0.131,0.048c0.039,0.02,0.069,0.049,0.108,0.077
					c0.031,0.028,0.055,0.059,0.068,0.07c0.013,0.018,0.028,0.04,0.043,0.064c0.006,0.006,0.008,0.016,0.01,0.016v-0.263h0.126
					V-32.812z M3.469-32.823c0.131,0,0.249-0.048,0.356-0.136c0.106-0.103,0.16-0.21,0.16-0.346c0-0.134-0.054-0.254-0.16-0.351
					c-0.107-0.1-0.225-0.147-0.356-0.147c-0.138,0-0.255,0.048-0.351,0.145c-0.095,0.091-0.145,0.211-0.145,0.344
					c0,0.132,0.049,0.253,0.145,0.35C3.214-32.871,3.332-32.823,3.469-32.823z"/>
				<path style="fill:#63635A;" d="M4.597-33.182v0.014v0.008c0,0.011-0.003,0.03-0.005,0.073c-0.001,0.049-0.001,0.08,0,0.091
					c0.002,0.013,0.008,0.038,0.01,0.068c0.004,0.031,0.011,0.058,0.017,0.074c0.015,0.02,0.027,0.042,0.044,0.063
					c0.076,0.092,0.207,0.104,0.375,0.042l0.007,0.107c-0.024,0.007-0.042,0.014-0.047,0.018c-0.007,0.001-0.023,0.003-0.038,0.01
					c-0.011,0-0.031,0-0.041,0c-0.011,0.01-0.031,0.01-0.048,0.01c-0.022,0.001-0.038,0-0.054,0c-0.02-0.01-0.039-0.01-0.061-0.01
					c-0.018-0.007-0.038-0.01-0.057-0.021c-0.017-0.007-0.037-0.018-0.057-0.03c-0.019-0.016-0.039-0.031-0.057-0.048
					c-0.025-0.02-0.048-0.043-0.059-0.075c-0.019-0.035-0.028-0.066-0.038-0.1c-0.003-0.036-0.008-0.065-0.013-0.097
					c-0.004-0.037-0.01-0.07-0.004-0.091c0-0.035,0-0.056-0.006-0.086v-0.021v-1.253h0.131V-33.182z"/>
				<path style="fill:#63635A;" d="M5.321-34.271h0.167v0.209H5.321V-34.271z M5.465-33.643v-0.234h-0.12v1.264h0.12V-33.643z"/>
				<path style="fill:#63635A;" d="M5.96-32.614H5.839v-1.264H5.96v0.215c0.101-0.166,0.248-0.252,0.426-0.252
					c0.174,0,0.309,0.048,0.401,0.149c0.094,0.097,0.138,0.229,0.138,0.403v0.748H6.802v-0.698c0-0.318-0.142-0.482-0.433-0.484
					c-0.193,0-0.324,0.11-0.409,0.33V-32.614z"/>
				<path style="fill:#63635A;" d="M7.41-33.197c0.007,0.055,0.017,0.109,0.035,0.163c0.028,0.069,0.066,0.125,0.114,0.173
					c0.042,0.058,0.098,0.092,0.167,0.12c0.066,0.028,0.132,0.045,0.203,0.045c0.079,0,0.15-0.017,0.208-0.045
					c0.043-0.015,0.082-0.045,0.114-0.068v0.14c-0.025,0.016-0.04,0.024-0.064,0.028c-0.079,0.038-0.168,0.06-0.265,0.06
					c-0.091,0-0.175-0.022-0.255-0.057c-0.08-0.031-0.149-0.084-0.204-0.141c-0.059-0.063-0.105-0.13-0.138-0.209
					c-0.029-0.082-0.051-0.162-0.051-0.259v-0.002c0-0.086,0.022-0.171,0.051-0.253c0.033-0.075,0.079-0.148,0.138-0.211
					c0.056-0.061,0.13-0.11,0.206-0.146c0.083-0.036,0.169-0.056,0.261-0.056c0.041,0,0.082,0.012,0.132,0.022
					c0.038,0.015,0.085,0.038,0.132,0.069c0.052,0.034,0.098,0.082,0.133,0.128c0.042,0.052,0.074,0.121,0.099,0.208
					c0.028,0.087,0.038,0.183,0.037,0.29H7.41z M7.92-33.796c-0.071,0-0.137,0.018-0.201,0.042c-0.071,0.029-0.122,0.07-0.166,0.115
					c-0.048,0.055-0.081,0.109-0.109,0.173c-0.018,0.059-0.028,0.104-0.035,0.162h0.924c0-0.03-0.012-0.092-0.037-0.17
					c-0.017-0.055-0.042-0.103-0.063-0.141c-0.026-0.04-0.055-0.069-0.075-0.092c-0.023-0.019-0.052-0.038-0.081-0.05
					c-0.038-0.017-0.064-0.022-0.078-0.032c-0.012,0-0.037-0.005-0.062-0.005C7.931-33.793,7.928-33.796,7.92-33.796z"/>
				<path style="fill:#63635A;" d="M10.711-32.812h-0.001c0,0.033-0.01,0.08-0.015,0.147c-0.006,0.051-0.023,0.105-0.059,0.154
					c-0.033,0.054-0.073,0.104-0.128,0.148c-0.054,0.045-0.11,0.081-0.192,0.11c-0.07,0.035-0.148,0.048-0.229,0.048
					c-0.164,0-0.321-0.048-0.484-0.126v-0.157c0.098,0.11,0.257,0.17,0.474,0.17c0.071,0,0.128-0.013,0.177-0.032
					c0.062-0.02,0.102-0.037,0.135-0.06c0.031-0.018,0.066-0.053,0.089-0.093c0.032-0.037,0.044-0.065,0.058-0.094
					c0.012-0.028,0.028-0.059,0.035-0.101c0.004-0.036,0.01-0.06,0.016-0.079c0-0.005,0-0.02,0-0.042v-0.189
					c-0.018,0.036-0.051,0.067-0.078,0.098c-0.032,0.034-0.066,0.064-0.104,0.097c-0.049,0.026-0.097,0.057-0.154,0.071
					c-0.06,0.019-0.109,0.028-0.175,0.028c-0.069,0-0.136-0.015-0.21-0.036c-0.066-0.03-0.136-0.063-0.202-0.112
					c-0.061-0.048-0.108-0.109-0.147-0.189c-0.031-0.08-0.051-0.169-0.051-0.27c0-0.1,0.025-0.185,0.067-0.27
					c0.037-0.094,0.107-0.165,0.202-0.228c0.091-0.061,0.193-0.098,0.307-0.098c0.062,0,0.119,0.012,0.179,0.024
					c0.056,0.017,0.104,0.031,0.135,0.048c0.044,0.02,0.071,0.049,0.101,0.077c0.035,0.028,0.06,0.059,0.07,0.07
					c0.012,0.018,0.027,0.04,0.048,0.064c0.006,0.006,0.012,0.016,0.012,0.016v-0.263h0.125V-32.812z M10.069-32.823
					c0.134,0,0.254-0.048,0.366-0.136c0.103-0.103,0.154-0.21,0.154-0.346c0-0.134-0.051-0.254-0.154-0.351
					c-0.112-0.1-0.232-0.147-0.366-0.147c-0.13,0-0.25,0.048-0.346,0.145c-0.095,0.091-0.139,0.211-0.139,0.344
					c0,0.132,0.045,0.253,0.139,0.35C9.819-32.871,9.938-32.823,10.069-32.823z"/>
				<path style="fill:#63635A;" d="M11.708-32.582c-0.094,0-0.182-0.022-0.263-0.057c-0.069-0.031-0.145-0.084-0.202-0.141
					c-0.06-0.063-0.106-0.13-0.137-0.209c-0.032-0.082-0.047-0.162-0.047-0.259v-0.002c0-0.086,0.015-0.171,0.047-0.253
					c0.031-0.075,0.077-0.148,0.137-0.211c0.057-0.061,0.133-0.11,0.202-0.146c0.089-0.036,0.175-0.056,0.27-0.056
					c0.09,0,0.174,0.019,0.258,0.056c0.08,0.036,0.147,0.083,0.201,0.144c0.062,0.061,0.108,0.131,0.141,0.211
					c0.03,0.072,0.042,0.163,0.042,0.25v0.006c0,0.088-0.012,0.175-0.042,0.252c-0.033,0.08-0.079,0.152-0.141,0.217
					c-0.054,0.058-0.127,0.11-0.201,0.142C11.889-32.603,11.802-32.582,11.708-32.582z M11.716-32.696
					c0.069,0,0.14-0.017,0.211-0.045c0.056-0.034,0.114-0.068,0.156-0.12c0.047-0.048,0.089-0.104,0.108-0.173
					c0.029-0.063,0.043-0.135,0.043-0.213v-0.002c0-0.071-0.014-0.147-0.043-0.218c-0.025-0.063-0.066-0.123-0.111-0.177
					c-0.042-0.043-0.096-0.082-0.166-0.113c-0.063-0.022-0.134-0.04-0.205-0.04c-0.074,0-0.145,0.018-0.209,0.042
					c-0.064,0.029-0.121,0.07-0.168,0.115c-0.034,0.055-0.078,0.109-0.107,0.173c-0.022,0.066-0.034,0.14-0.034,0.212v0.006
					c0,0.08,0.012,0.151,0.041,0.215c0.025,0.069,0.066,0.125,0.109,0.173c0.04,0.058,0.105,0.092,0.167,0.12
					C11.572-32.712,11.636-32.696,11.716-32.696z"/>
				<path style="fill:#63635A;" d="M12.835-33.197c0.011,0.055,0.023,0.109,0.045,0.163c0.021,0.069,0.062,0.125,0.112,0.173
					c0.038,0.058,0.102,0.092,0.165,0.12c0.062,0.028,0.132,0.045,0.195,0.045c0.083,0,0.151-0.017,0.211-0.045
					c0.048-0.015,0.084-0.045,0.123-0.068v0.14c-0.029,0.016-0.052,0.024-0.065,0.028c-0.082,0.038-0.175,0.06-0.269,0.06
					c-0.092,0-0.179-0.022-0.258-0.057c-0.08-0.031-0.146-0.084-0.201-0.141c-0.06-0.063-0.105-0.13-0.141-0.209
					c-0.03-0.082-0.051-0.162-0.051-0.259v-0.002c0-0.086,0.021-0.171,0.051-0.253c0.036-0.075,0.081-0.148,0.141-0.211
					c0.055-0.061,0.129-0.11,0.206-0.146c0.078-0.036,0.162-0.056,0.254-0.056c0.049,0,0.092,0.012,0.13,0.022
					c0.042,0.015,0.09,0.038,0.143,0.069c0.044,0.034,0.091,0.082,0.131,0.128c0.044,0.052,0.075,0.121,0.102,0.208
					c0.022,0.087,0.037,0.183,0.037,0.29H12.835z M13.353-33.796c-0.069,0-0.142,0.018-0.205,0.042
					c-0.065,0.029-0.118,0.07-0.169,0.115c-0.037,0.055-0.078,0.109-0.099,0.173c-0.023,0.059-0.034,0.104-0.045,0.162h0.932
					c0-0.03-0.018-0.092-0.033-0.17c-0.023-0.055-0.047-0.103-0.066-0.141c-0.033-0.04-0.056-0.069-0.078-0.092
					c-0.025-0.019-0.049-0.038-0.086-0.05c-0.031-0.017-0.056-0.022-0.076-0.032c-0.016,0-0.033-0.005-0.059-0.005
					C13.362-33.793,13.353-33.796,13.353-33.796z"/>
				<path style="fill:#63635A;" d="M14.949-33.663c-0.008-0.006-0.026-0.022-0.047-0.032c-0.019-0.012-0.058-0.03-0.12-0.05
					c-0.061-0.028-0.117-0.034-0.17-0.049c-0.045-0.009-0.112,0-0.167,0.018c-0.063,0.02-0.113,0.051-0.152,0.107
					c-0.034,0.06-0.039,0.116-0.018,0.167c0.033,0.05,0.074,0.082,0.131,0.102c0.063,0.022,0.127,0.044,0.206,0.073
					c0.072,0.028,0.146,0.048,0.216,0.078c0.061,0.026,0.12,0.064,0.161,0.118c0.042,0.057,0.057,0.116,0.049,0.196
					c-0.008,0.1-0.042,0.186-0.109,0.238c-0.059,0.055-0.128,0.092-0.213,0.101c-0.086,0.014-0.169,0-0.258-0.008
					c-0.084-0.017-0.162-0.038-0.229-0.061c-0.067-0.031-0.115-0.063-0.136-0.091l0.059-0.105c0.01,0.007,0.038,0.025,0.068,0.041
					c0.03,0.018,0.079,0.041,0.161,0.071c0.087,0.036,0.152,0.05,0.221,0.05c0.11,0,0.186-0.028,0.242-0.076
					c0.045-0.045,0.071-0.112,0.071-0.189c0-0.05-0.026-0.09-0.067-0.13c-0.04-0.03-0.099-0.056-0.153-0.078
					c-0.06-0.021-0.127-0.045-0.224-0.063c-0.119-0.027-0.212-0.078-0.272-0.154c-0.06-0.076-0.081-0.164-0.046-0.259
					c0.026-0.091,0.088-0.161,0.184-0.21c0.091-0.044,0.189-0.063,0.29-0.044c0.059,0.008,0.12,0.025,0.185,0.044
					c0.059,0.026,0.111,0.049,0.148,0.068l0.051,0.028L14.949-33.663z"/>
				<path style="fill:#63635A;" d="M16.165-33.655c0.018-0.028,0.036-0.052,0.065-0.076c0.014-0.025,0.049-0.058,0.086-0.082
					c0.037-0.031,0.086-0.054,0.139-0.073c0.05-0.017,0.119-0.028,0.182-0.028c0.084,0,0.159,0.019,0.233,0.048
					c0.063,0.041,0.12,0.078,0.153,0.137c0.037,0.053,0.064,0.115,0.086,0.172c0.017,0.066,0.024,0.126,0.024,0.196v0.748H17.01
					v-0.721c0-0.012,0-0.022,0-0.035c0-0.005-0.006-0.03-0.006-0.063c-0.01-0.034-0.01-0.059-0.015-0.092
					c-0.008-0.028-0.021-0.059-0.039-0.1c-0.023-0.03-0.048-0.06-0.072-0.082c-0.025-0.03-0.067-0.05-0.117-0.066
					c-0.045-0.021-0.096-0.029-0.158-0.029c-0.194,0-0.334,0.103-0.439,0.311v0.878h-0.122v-1.821h0.122V-33.655z"/>
				<path style="fill:#63635A;" d="M17.619-33.197c0.007,0.055,0.022,0.109,0.039,0.163c0.03,0.069,0.065,0.125,0.113,0.173
					c0.045,0.058,0.099,0.092,0.16,0.12c0.068,0.028,0.135,0.045,0.214,0.045c0.069,0,0.139-0.017,0.204-0.045
					c0.039-0.015,0.075-0.045,0.119-0.068v0.14c-0.022,0.016-0.053,0.024-0.069,0.028c-0.088,0.038-0.168,0.06-0.265,0.06
					c-0.093,0-0.174-0.022-0.259-0.057c-0.077-0.031-0.145-0.084-0.208-0.141c-0.063-0.063-0.103-0.13-0.132-0.209
					c-0.031-0.082-0.048-0.162-0.048-0.259v-0.002c0-0.086,0.017-0.171,0.048-0.253c0.029-0.075,0.069-0.148,0.132-0.211
					c0.063-0.061,0.131-0.11,0.215-0.146c0.078-0.036,0.164-0.056,0.264-0.056c0.036,0,0.078,0.012,0.122,0.022
					c0.042,0.015,0.082,0.038,0.135,0.069c0.057,0.034,0.103,0.082,0.14,0.128c0.034,0.052,0.067,0.121,0.101,0.208
					c0.026,0.087,0.03,0.183,0.03,0.29H17.619z M18.133-33.796c-0.071,0-0.138,0.018-0.209,0.042c-0.059,0.029-0.11,0.07-0.16,0.115
					c-0.047,0.055-0.084,0.109-0.106,0.173c-0.016,0.059-0.031,0.104-0.039,0.162h0.926c-0.004-0.03-0.014-0.092-0.038-0.17
					c-0.012-0.055-0.037-0.103-0.063-0.141c-0.031-0.04-0.052-0.069-0.076-0.092c-0.026-0.019-0.054-0.038-0.086-0.05
					c-0.028-0.017-0.054-0.022-0.069-0.032c-0.019,0-0.038-0.005-0.059-0.005C18.145-33.793,18.136-33.796,18.133-33.796z"/>
				<path style="fill:#63635A;" d="M19.679-33.765c-0.022,0-0.056,0-0.083,0.003c-0.028,0-0.073,0.013-0.115,0.037
					c-0.051,0.019-0.095,0.048-0.136,0.082c-0.038,0.034-0.077,0.085-0.123,0.156c-0.037,0.079-0.062,0.16-0.081,0.257v0.616h-0.122
					v-1.264h0.122v0.234v0.109c0.073-0.144,0.166-0.242,0.255-0.289c0.093-0.051,0.186-0.072,0.283-0.072V-33.765z"/>
				<path style="fill:#63635A;" d="M19.712-33.197c0.004,0.055,0.018,0.109,0.042,0.163c0.02,0.069,0.057,0.125,0.104,0.173
					c0.051,0.058,0.103,0.092,0.168,0.12c0.062,0.028,0.13,0.045,0.203,0.045c0.075,0,0.149-0.017,0.214-0.045
					c0.039-0.015,0.077-0.045,0.108-0.068v0.14c-0.024,0.016-0.047,0.024-0.065,0.028c-0.079,0.038-0.166,0.06-0.261,0.06
					c-0.093,0-0.18-0.022-0.263-0.057c-0.073-0.031-0.146-0.084-0.207-0.141c-0.06-0.063-0.096-0.13-0.133-0.209
					c-0.027-0.082-0.044-0.162-0.044-0.259v-0.002c0-0.086,0.017-0.171,0.044-0.253c0.037-0.075,0.073-0.148,0.139-0.211
					c0.057-0.061,0.136-0.11,0.209-0.146c0.079-0.036,0.168-0.056,0.259-0.056c0.042,0,0.083,0.012,0.133,0.022
					c0.033,0.015,0.081,0.038,0.14,0.069c0.046,0.034,0.084,0.082,0.135,0.128c0.034,0.052,0.063,0.121,0.087,0.208
					c0.027,0.087,0.038,0.183,0.038,0.29H19.712z M20.226-33.796c-0.079,0-0.14,0.018-0.209,0.042
					c-0.063,0.029-0.117,0.07-0.166,0.115c-0.04,0.055-0.077,0.109-0.097,0.173c-0.024,0.059-0.038,0.104-0.042,0.162h0.925
					c0-0.03-0.012-0.092-0.037-0.17c-0.015-0.055-0.038-0.103-0.071-0.141c-0.023-0.04-0.042-0.069-0.065-0.092
					c-0.029-0.019-0.056-0.038-0.085-0.05c-0.035-0.017-0.058-0.022-0.077-0.032c-0.014,0-0.035-0.005-0.054-0.005
					C20.242-33.793,20.23-33.796,20.226-33.796z"/>
			</g>
		</g>
	</g>
	<g>
		<path style="fill:#929497;" d="M14.707-47.415L2.463-66.848l-2.049-3.243l4.477-0.013l24.358-0.022l3.658-0.008l-1.815,2.9
			L18.965-47.751l-2.237,3.566L14.707-47.415z M8.813-65.915l8.173,12.959l8.09-12.976L8.813-65.915z"/>
		
			<radialGradient id="SVGID_1_" cx="202.3972" cy="755.4009" r="10.7821" fx="200.8966" fy="755.2927" gradientTransform="matrix(0.5327 -0.4669 -0.3969 -0.3051 208.4142 273.8532)" gradientUnits="userSpaceOnUse">
			<stop  offset="0.2921" style="stop-color:#292929"/>
			<stop  offset="0.3065" style="stop-color:#313131"/>
			<stop  offset="0.4238" style="stop-color:#6F6F6F"/>
			<stop  offset="0.5362" style="stop-color:#A2A2A2"/>
			<stop  offset="0.6408" style="stop-color:#CBCBCB"/>
			<stop  offset="0.736" style="stop-color:#E7E7E7"/>
			<stop  offset="0.8183" style="stop-color:#F9F9F9"/>
			<stop  offset="0.8787" style="stop-color:#FFFFFF"/>
		</radialGradient>
		<path style="opacity:0.61;fill:url(#SVGID_1_);" d="M24.145-57.273c-2.83-2.175-8.488-1.074-12.563,2.488
			c-4.1,3.571-5.08,8.242-2.247,10.422c2.895,2.222,8.532,1.128,12.621-2.444C26.039-50.374,27.037-55.054,24.145-57.273z"/>
		
			<radialGradient id="SVGID_00000173854372538959526570000013015038808880890291_" cx="210.3498" cy="770.1102" r="10.0485" fx="208.9514" fy="770.0093" gradientTransform="matrix(0.5822 -0.4035 -0.3598 -0.3481 168.2786 285.0186)" gradientUnits="userSpaceOnUse">
			<stop  offset="0.2921" style="stop-color:#292929"/>
			<stop  offset="0.3065" style="stop-color:#313131"/>
			<stop  offset="0.4238" style="stop-color:#6F6F6F"/>
			<stop  offset="0.5362" style="stop-color:#A2A2A2"/>
			<stop  offset="0.6408" style="stop-color:#CBCBCB"/>
			<stop  offset="0.736" style="stop-color:#E7E7E7"/>
			<stop  offset="0.8183" style="stop-color:#F9F9F9"/>
			<stop  offset="0.8787" style="stop-color:#FFFFFF"/>
		</radialGradient>
		<path style="opacity:0.61;fill:url(#SVGID_00000173854372538959526570000013015038808880890291_);" d="M21.467-72.816
			c-2.388-2.313-7.743-1.891-11.894,0.977c-4.175,2.875-5.574,7.096-3.182,9.415c2.446,2.362,7.782,1.945,11.946-0.931
			C22.497-66.228,23.914-70.457,21.467-72.816z"/>
		<path style="fill:#ED1B23;" d="M30.928-53.196L18.685-72.629l-2.049-3.243l-2.208,3.58L2.298-52.81l-1.816,2.9l3.633-0.021
			l24.369-0.049l4.494,0.027L30.928-53.196z M16.407-67.089l8.173,12.96L8.316-54.113L16.407-67.089z"/>
		
			<radialGradient id="SVGID_00000171679407341707837650000017532822117027639982_" cx="222.4817" cy="798.4206" r="10.7816" fx="220.9813" fy="798.3123" gradientTransform="matrix(0.4547 -0.5432 -0.439 -0.2405 258.3546 252.4813)" gradientUnits="userSpaceOnUse">
			<stop  offset="0.2921" style="stop-color:#292929"/>
			<stop  offset="0.3065" style="stop-color:#313131"/>
			<stop  offset="0.4238" style="stop-color:#6F6F6F"/>
			<stop  offset="0.5362" style="stop-color:#A2A2A2"/>
			<stop  offset="0.6408" style="stop-color:#CBCBCB"/>
			<stop  offset="0.736" style="stop-color:#E7E7E7"/>
			<stop  offset="0.8183" style="stop-color:#F9F9F9"/>
			<stop  offset="0.8787" style="stop-color:#FFFFFF"/>
		</radialGradient>
		<path style="opacity:0.61;fill:url(#SVGID_00000171679407341707837650000017532822117027639982_);" d="M15.704-67.66
			c-3.129-1.715-8.55,0.242-12.03,4.388c-3.504,4.158-3.753,8.923-0.62,10.643c3.201,1.751,8.603-0.196,12.097-4.353
			C18.639-61.135,18.901-65.912,15.704-67.66z"/>
		<polygon style="fill:#929497;" points="10.537,-54.115 2.707,-66.462 8.813,-65.915 16.252,-54.12 		"/>
		
			<radialGradient id="SVGID_00000028304036258316936130000015717622504837812905_" cx="48.1097" cy="448.9163" r="10.272" fx="46.6801" fy="448.8131" gradientTransform="matrix(0.2419 0.6657 0.4282 -0.2592 -178.6537 24.4496)" gradientUnits="userSpaceOnUse">
			<stop  offset="0.2921" style="stop-color:#292929"/>
			<stop  offset="0.3065" style="stop-color:#313131"/>
			<stop  offset="0.4238" style="stop-color:#6F6F6F"/>
			<stop  offset="0.5362" style="stop-color:#A2A2A2"/>
			<stop  offset="0.6408" style="stop-color:#CBCBCB"/>
			<stop  offset="0.736" style="stop-color:#E7E7E7"/>
			<stop  offset="0.8183" style="stop-color:#F9F9F9"/>
			<stop  offset="0.8787" style="stop-color:#FFFFFF"/>
		</radialGradient>
		<path style="opacity:0.61;fill:url(#SVGID_00000028304036258316936130000015717622504837812905_);" d="M28.003-50.893
			c2.907-1.761,3.885-7.162,2.13-12.013c-1.753-4.877-5.559-7.358-8.473-5.596c-2.975,1.801-3.953,7.186-2.193,12.05
			C21.226-51.591,25.033-49.092,28.003-50.893z"/>
		<polygon style="fill:#929497;" points="28.738,-63.451 23.311,-54.745 19.598,-57.145 26.521,-68.208 		"/>
	</g>
	<g>
		<path style="fill:#ED1B23;" d="M-0.763-34.817v-6.906h-2.489v-0.61c0-0.244,0.085-0.451,0.256-0.622
			c0.171-0.171,0.378-0.257,0.623-0.257h5.808v1.489H0.97v6.906H-0.763z"/>
		<path style="fill:#ED1B23;" d="M3.752-34.817v-3.147c0-0.636,0.093-1.168,0.281-1.6c0.187-0.43,0.443-0.776,0.768-1.037
			c0.31-0.244,0.671-0.423,1.086-0.536c0.415-0.113,0.842-0.171,1.281-0.171c0.033,0,0.074,0,0.122,0c0.049,0,0.089,0,0.122,0v1.732
			H6.852c-0.472,0-0.822,0.114-1.05,0.342c-0.228,0.229-0.342,0.586-0.342,1.073v3.344H3.752z"/>
		<path style="fill:#ED1B23;" d="M7.73-43.212h0.879c0.228,0,0.423,0.083,0.585,0.244c0.163,0.163,0.244,0.357,0.244,0.586v0.513
			H7.73V-43.212z M7.73-41.308h0.879c0.228,0,0.423,0.082,0.585,0.243c0.163,0.163,0.244,0.358,0.244,0.586v5.662H7.73V-41.308z"/>
		<path style="fill:#ED1B23;" d="M13.66-35.085c-0.341,0.181-0.704,0.289-1.086,0.329c-0.382,0.042-0.72,0.062-1.013,0.062
			c-0.585,0-1.098-0.159-1.537-0.476c-0.44-0.317-0.659-0.843-0.659-1.574c0-0.684,0.199-1.172,0.598-1.464
			c0.399-0.294,0.907-0.489,1.526-0.586c0.081,0,0.179-0.013,0.293-0.037c0.114-0.024,0.244-0.044,0.39-0.061
			c0.716-0.098,1.074-0.309,1.074-0.636c0-0.243-0.126-0.402-0.378-0.476c-0.252-0.073-0.484-0.109-0.695-0.109
			c-0.227,0-0.431,0.033-0.61,0.098c-0.179,0.064-0.309,0.187-0.391,0.366H9.536c0.065-0.504,0.293-0.918,0.684-1.245
			c0.439-0.374,1.065-0.56,1.879-0.56c0.911,0,1.595,0.155,2.05,0.463c0.471,0.326,0.708,0.781,0.708,1.367v2.221
			c0,0.65-0.118,1.159-0.354,1.525C14.267-35.512,13.986-35.247,13.66-35.085z M13.27-38.087c-0.228,0.114-0.545,0.22-0.952,0.317
			l-0.561,0.122c-0.293,0.083-0.504,0.188-0.635,0.317c-0.114,0.18-0.17,0.358-0.17,0.537c0,0.244,0.073,0.439,0.219,0.586
			c0.147,0.131,0.358,0.194,0.635,0.194c0.456,0,0.813-0.13,1.074-0.39c0.26-0.26,0.391-0.619,0.391-1.074V-38.087z"/>
		<path style="fill:#ED1B23;" d="M20.762-34.817h-0.854c-0.243,0-0.442-0.076-0.597-0.231c-0.154-0.155-0.232-0.354-0.232-0.599
			v-3.318c0-0.392-0.118-0.675-0.355-0.854c-0.236-0.179-0.5-0.269-0.793-0.269c-0.292,0-0.553,0.09-0.78,0.269
			c-0.228,0.18-0.342,0.463-0.342,0.854v4.148h-1.708v-3.807c0-1.106,0.289-1.846,0.866-2.222c0.578-0.374,1.216-0.576,1.916-0.609
			c0.715,0,1.374,0.186,1.976,0.56c0.603,0.375,0.903,1.132,0.903,2.271V-34.817z"/>
		<path style="fill:#ED1B23;" d="M25.327-35.207v-0.416c-0.294,0.456-0.688,0.742-1.184,0.854c-0.496,0.114-0.988,0.073-1.477-0.122
			c-0.489-0.195-0.908-0.558-1.257-1.086c-0.35-0.528-0.525-1.224-0.525-2.087c0-1.009,0.231-1.826,0.695-2.453
			c0.465-0.625,1.208-0.938,2.233-0.938c0.781,0,1.506,0.211,2.172,0.634c0.668,0.425,1.002,1.205,1.002,2.344v3.44
			c0,1.14-0.334,1.915-1.002,2.33c-0.666,0.415-1.391,0.623-2.172,0.623c-1.496,0-2.425-0.7-2.782-2.099h1.782
			c0.129,0.228,0.33,0.402,0.599,0.525c0.267,0.122,0.536,0.154,0.805,0.098c0.269-0.058,0.512-0.216,0.732-0.477
			C25.167-34.295,25.293-34.687,25.327-35.207z M22.544-38.014c0,1.123,0.324,1.745,0.975,1.867c0.652,0.122,1.132-0.027,1.44-0.452
			c0.146-0.179,0.253-0.459,0.318-0.842c0.063-0.381,0.069-0.76,0.012-1.135c-0.056-0.374-0.191-0.708-0.403-1
			c-0.211-0.293-0.52-0.439-0.927-0.439c-0.554,0-0.927,0.204-1.123,0.61C22.641-38.999,22.544-38.535,22.544-38.014z"/>
		<path style="fill:#ED1B23;" d="M27.351-43.212h0.879c0.228,0,0.425,0.077,0.587,0.232s0.243,0.346,0.243,0.573v7.59h-1.709
			V-43.212z"/>
		<path style="fill:#ED1B23;" d="M33.869-36.818h1.22c-0.18,0.684-0.521,1.204-1.024,1.562c-0.504,0.376-1.14,0.562-1.904,0.562
			c-0.928,0-1.652-0.301-2.171-0.903c-0.522-0.586-0.782-1.424-0.782-2.514c0-1.04,0.253-1.854,0.757-2.44
			c0.521-0.601,1.245-0.902,2.172-0.902c0.977,0,1.733,0.292,2.27,0.878c0.521,0.603,0.78,1.44,0.78,2.514c0,0.065,0,0.122,0,0.171
			c0,0.049,0,0.083,0,0.099c0,0.082-0.008,0.138-0.023,0.17H30.94c0.016,0.504,0.137,0.879,0.365,1.123
			c0.212,0.26,0.528,0.39,0.951,0.39c0.278,0,0.514-0.057,0.709-0.171c0.048-0.015,0.093-0.044,0.133-0.085
			c0.043-0.039,0.087-0.086,0.136-0.134c0.015-0.049,0.077-0.113,0.183-0.196C33.523-36.778,33.673-36.818,33.869-36.818z
			 M30.94-38.721h2.488c-0.032-0.44-0.146-0.766-0.342-0.978c-0.21-0.228-0.512-0.341-0.903-0.341c-0.356,0-0.65,0.113-0.878,0.341
			C31.077-39.469,30.956-39.145,30.94-38.721z"/>
	</g>
</g>
</svg>
